<?xml version="1.0" encoding="UTF-8"?>
<svg width="3589px" height="1155px" viewBox="0 0 3589 1155" version="1.1" xmlns="http://www.w3.org/2000/svg" xmlns:xlink="http://www.w3.org/1999/xlink">
    <!-- Generator: Sketch 47 (45396) - http://www.bohemiancoding.com/sketch -->
    <title>logo bleu</title>
    <desc>Created with Sketch.</desc>
    <defs></defs>
    <g id="Page-1" stroke="none" stroke-width="1" fill="none" fill-rule="evenodd">
        <g id="logo-bleu" transform="translate(-149.000000, -142.000000)">
            <g id="logo-copy" transform="translate(149.000000, 142.000000)">
                <path d="M577.115433,1154.23087 C895.847485,1154.23087 1154.23087,895.847485 1154.23087,577.115433 C1154.23087,258.38338 895.847485,0 577.115433,0 C258.38338,0 0,258.38338 0,577.115433 C0,895.847485 258.38338,1154.23087 577.115433,1154.23087 Z" id="Rectangle-1" fill="#194064"></path>
                <path d="M1413.59929,903.89475 C1375.45129,903.89475 1345.10629,872.68275 1345.10629,835.40175 L1345.10629,330.80775 C1345.10629,293.52675 1375.45129,262.31475 1413.59929,262.31475 C1451.74729,262.31475 1482.09229,293.52675 1482.09229,330.80775 L1482.09229,835.40175 C1482.09229,872.68275 1451.74729,903.89475 1413.59929,903.89475 L1413.59929,903.89475 Z" id="IR" fill="#1D4164" transform="translate(1413.599285, 583.104750) rotate(-358.000000) translate(-1413.599285, -583.104750) "></path>
                <path d="M1966.67546,794.047565 L1870.43846,631.051565 C1932.86246,598.105565 1974.47846,532.213565 1974.47846,455.917565 C1974.47846,346.675565 1886.04446,257.374565 1775.93546,257.374565 L1640.68346,257.374565 C1603.40246,257.374565 1572.19046,288.586565 1572.19046,326.734565 L1572.19046,829.594565 C1572.19046,867.742565 1603.40246,898.954565 1640.68346,898.954565 C1679.69846,898.954565 1710.91046,867.742565 1710.91046,829.594565 L1710.91046,655.327565 L1723.91546,655.327565 L1847.02946,865.141565 C1868.70446,901.555565 1911.18746,906.757565 1941.53246,888.550565 C1974.47846,868.609565 1985.74946,827.860565 1966.67546,794.047565 L1966.67546,794.047565 Z M1836.62546,455.917565 C1836.62546,490.597565 1809.74846,516.607565 1775.93546,516.607565 L1710.91046,516.607565 L1710.91046,396.094565 L1775.93546,396.094565 C1809.74846,396.094565 1836.62546,422.971565 1836.62546,455.917565 L1836.62546,455.917565 Z" id="IR" fill="#1D4164" transform="translate(1774.073527, 578.164565) rotate(-2.000000) translate(-1774.073527, -578.164565) "></path>
                <g id="Group-2" transform="translate(2048.901084, 225.000000)">
                    <polygon id="Rectangle-3" fill="#0063C2" transform="translate(874.319519, 222.865853) rotate(-8.000000) translate(-874.319519, -222.865853) " points="207.444358 206.848111 1539.26843 202.315798 1539.26843 239.223245 207.444358 232.491609"></polygon>
                    <path d="M472.340297,546.035086 L253.856297,546.035086 L529.562297,151.550086 C551.237297,120.338086 542.567297,78.7220861 513.089297,55.3130861 C500.951297,45.7760861 485.345297,43.1750861 470.606297,43.1750861 L116.870297,43.1750861 C81.3232972,43.1750861 51.8452972,71.7860861 51.8452972,107.333086 C51.8452972,142.880086 81.3232972,172.358086 116.870297,172.358086 L347.492297,172.358086 L65.7172972,575.513086 C43.1752972,607.592086 50.9782972,650.075086 82.1902972,671.750086 C94.3282972,680.420086 107.333297,684.755086 121.205297,684.755086 L472.340297,684.755086 C510.488297,684.755086 541.700297,653.543086 541.700297,616.262086 C541.700297,577.247086 510.488297,546.035086 472.340297,546.035086 L472.340297,546.035086 Z" id="Z" fill="#1D4164" transform="translate(305.876297, 363.965086) rotate(-350.000000) translate(-305.876297, -363.965086) "></path>
                </g>
                <polygon id="Rectangle-3" fill="#0063C1" transform="translate(2918.750505, 381.597787) rotate(-18.000000) translate(-2918.750505, -381.597787) " points="2251.87534 365.580045 3583.69942 361.047732 3583.69942 397.955179 2251.87534 391.223544"></polygon>
                <path d="M751.00008,752.505455 C859.036938,691.637917 932,575.839677 932,443 L222,443 C222,575.018339 294.063601,690.205322 401,751.370146 L401,819 L751,819 L751,752.5055 Z" id="Rectangle-1" fill="#EAECEC"></path>
            </g>
        </g>
    </g>
</svg>